<svg width="12" height="11" viewBox="0 0 12 11" fill="none" xmlns="http://www.w3.org/2000/svg">
<path d="M10 4V2C10 1.73478 9.89464 1.48043 9.70711 1.29289C9.51957 1.10536 9.26522 1 9 1H3C2.73478 1 2.48043 1.10536 2.29289 1.29289C2.10536 1.48043 2 1.73478 2 2V4M1.5 9H1.6C1.9713 9 2.3274 8.8525 2.58995 8.58995C2.8525 8.3274 3 7.9713 3 7.6V6.5M10.5 9H10.4C10.0287 9 9.6726 8.8525 9.41005 8.58995C9.1475 8.3274 9 7.9713 9 7.6V6.5M6 10V6.5" stroke="black" stroke-width="1.5" stroke-linecap="round" stroke-linejoin="round"/>
</svg>
